<svg width="45" height="31" viewBox="0 0 45 31" fill="none" xmlns="http://www.w3.org/2000/svg">
<g clip-path="url(#clip0_2891_5901)">
<path d="M5.21543 1.91798L0.00148773 31.0011C0.00148773 31.0011 6.72705 29.8247 9.89229 31.0011L5.21543 1.91798Z" fill="#0D278F"/>
<mask id="path-2-inside-1_2891_5901" fill="white">
<path d="M5.21543 1.91798L9.89687 31.0011C9.89687 31.0011 29.7827 28.5301 45.002 30.7945L39.6013 2.02359L5.21887 1.91798"/>
</mask>
<path d="M5.21543 1.91798L9.89687 31.0011C9.89687 31.0011 29.7827 28.5301 45.002 30.7945L39.6013 2.02359L5.21887 1.91798" fill="#FCFCFC"/>
<path d="M9.89687 31.0011L8.90958 31.1601L9.06288 32.1125L10.0202 31.9935L9.89687 31.0011ZM45.002 30.7945L44.8548 31.7836L46.2439 31.9902L45.9848 30.61L45.002 30.7945ZM39.6013 2.02359L40.5842 1.8391L40.4316 1.02613L39.6044 1.02359L39.6013 2.02359ZM4.22814 2.0769L8.90958 31.1601L10.8842 30.8422L6.20272 1.75906L4.22814 2.0769ZM9.89687 31.0011C10.0202 31.9935 10.0202 31.9935 10.0202 31.9935C10.0203 31.9935 10.0205 31.9935 10.0207 31.9934C10.0212 31.9934 10.0219 31.9933 10.023 31.9932C10.0252 31.9929 10.0285 31.9925 10.033 31.9919C10.0421 31.9908 10.0559 31.9891 10.0744 31.9869C10.1114 31.9824 10.167 31.9757 10.2406 31.9671C10.3876 31.9498 10.6063 31.9247 10.8905 31.8934C11.459 31.8308 12.2897 31.7437 13.3348 31.6461C15.4253 31.4509 18.3716 31.214 21.7908 31.0475C28.6418 30.7139 37.3416 30.6658 44.8548 31.7836L45.1491 29.8053C37.443 28.6588 28.5903 28.714 21.6936 29.0499C18.239 29.2181 15.2625 29.4574 13.1489 29.6548C12.0918 29.7534 11.2501 29.8417 10.6716 29.9054C10.3824 29.9372 10.1589 29.9629 10.0072 29.9808C9.93141 29.9897 9.87352 29.9966 9.83432 30.0013C9.81472 30.0037 9.7998 30.0055 9.78964 30.0068C9.78456 30.0074 9.78067 30.0079 9.77799 30.0082C9.77665 30.0084 9.77561 30.0085 9.77487 30.0086C9.7745 30.0086 9.77417 30.0087 9.77398 30.0087C9.77373 30.0087 9.77356 30.0088 9.89687 31.0011ZM45.9848 30.61L40.5842 1.8391L38.6185 2.20808L44.0191 30.9789L45.9848 30.61ZM39.6044 1.02359L5.22194 0.917987L5.21579 2.91798L39.5983 3.02358L39.6044 1.02359Z" fill="#99C9E9" mask="url(#path-2-inside-1_2891_5901)"/>
<path d="M24.9913 16.6861L20.1816 16.7963L19.4865 12.958L24.1943 12.9353L24.9913 16.6861Z" fill="#99C9E9"/>
<path d="M32.6158 16.4613L27.805 16.5714L27.1099 12.7332L31.8176 12.7105L32.6158 16.4613Z" fill="#99C9E9"/>
<path d="M39.804 16.4942L34.9943 16.6032L34.2981 12.765L39.007 12.7423L39.804 16.4942Z" fill="#99C9E9"/>
<path d="M40.7706 21.6622L35.9597 21.7712L35.2646 17.933L39.9724 17.9103L40.7706 21.6622Z" fill="#99C9E9"/>
<path d="M26.0403 21.6179L21.2306 21.7269L20.5343 17.8887L25.2421 17.866L26.0403 21.6179Z" fill="#99C9E9"/>
<path d="M18.5978 21.8473L13.7881 21.9574L13.0919 18.1192L17.8008 18.0965L18.5978 21.8473Z" fill="#99C9E9"/>
<path d="M19.7831 27.1913L14.9722 27.3003L14.2771 23.4621L18.9849 23.4405L19.7831 27.1913Z" fill="#99C9E9"/>
<path d="M27.166 27.0834L22.3563 27.1936L21.66 23.3542L26.3689 23.3326L27.166 27.0834Z" fill="#99C9E9"/>
<path d="M34.7722 27.0664L29.9625 27.1754L29.2674 23.3372L33.9751 23.3144L34.7722 27.0664Z" fill="#99C9E9"/>
<path d="M33.5709 21.6111L28.7612 21.7201L28.0649 17.8819L32.7739 17.8592L33.5709 21.6111Z" fill="#4B45BD"/>
<path d="M14.6539 0.0476941L17.2786 0L17.5729 3.65087L14.9803 3.65314L14.6539 0.0476941Z" fill="#0D278F"/>
<path d="M31.071 0.21803L33.3396 0.173742L33.5949 3.5657L31.3539 3.56797L31.071 0.21803Z" fill="#0D278F"/>
</g>
<defs>
<clipPath id="clip0_2891_5901">
<rect width="45" height="31" fill="white"/>
</clipPath>
</defs>
</svg>
