<svg width="29" height="32" viewBox="0 0 29 32" fill="none" xmlns="http://www.w3.org/2000/svg">
<path d="M15.0826 17.1578C18.976 17.1578 22.1322 14.0015 22.1322 10.1081C22.1322 6.21469 18.976 3.05845 15.0826 3.05845C11.1891 3.05845 8.03291 6.21469 8.03291 10.1081C8.03291 14.0015 11.1891 17.1578 15.0826 17.1578Z" fill="#EEEEEE"/>
<path d="M15.0826 17.1578C18.976 17.1578 22.1322 14.0015 22.1322 10.1081C22.1322 6.21469 18.976 3.05845 15.0826 3.05845C11.1891 3.05845 8.03291 6.21469 8.03291 10.1081C8.03291 14.0015 11.1891 17.1578 15.0826 17.1578Z" stroke="#0D278F"/>
<path d="M8.41319 12.3137C8.41319 12.3137 9.01215 11.2618 8.8729 7.74788C8.73365 4.23392 14.0846 6.22139 18.5558 5.88617C23.0271 5.55096 22.0806 11.7528 22.0806 11.7528C22.0806 11.7528 22.4032 11.3842 23.0938 8.39095C23.7844 5.39775 22.2163 2.4149 22.2163 2.4149C21.7545 -0.730399 19.2656 0.277666 19.2656 0.277666C20.4642 0.744285 20.234 1.74202 20.234 1.74202C19.2194 -0.0368545 16.7305 0.971222 16.7305 0.971222C13.411 -1.11185 10.0467 1.63128 10.0467 1.63128C6.03654 2.5414 8.38833 5.73051 8.38833 5.73051C4.35546 7.76855 8.41319 12.3137 8.41319 12.3137Z" fill="#0D278F"/>
<path d="M26.8456 26.6533C24.8361 25.5944 22.7387 24.7118 20.5768 24.0152L20.3008 20.9657L9.12082 19.7612L7.69998 23.659L3.68775 25.1647C3.54411 25.2191 3.40737 25.2903 3.28037 25.3767H3.27604C2.61915 25.4323 1.98654 25.651 1.43551 26.0129C1.06174 26.2515 0.729422 26.5495 0.45166 26.8951C0.994496 27.3065 1.55832 27.6882 2.13943 28.053L2.16506 28.0657C2.33048 28.1675 2.50022 28.2693 2.66963 28.3669C2.97517 28.5492 3.28902 28.7231 3.60287 28.8885L3.80224 28.9903C4.26021 29.2278 4.72684 29.4526 5.20611 29.6604C5.30363 29.7029 5.4098 29.7453 5.50732 29.7877C5.51564 29.792 5.51996 29.792 5.52827 29.7962C5.75326 29.8895 5.97792 29.9785 6.20691 30.0634C6.95929 30.3507 7.72671 30.5971 8.50576 30.8014C10.494 31.3313 12.5429 31.5993 14.6005 31.5987C15.3513 31.5987 16.0936 31.5648 16.8274 31.4927C18.504 31.338 20.159 31.0038 21.7643 30.496C21.7683 30.496 21.7729 30.4918 21.7769 30.4918C22.791 30.1687 23.7816 29.7762 24.7417 29.3169C24.7457 29.3127 24.7544 29.3127 24.7587 29.3084C24.9751 29.2066 25.1827 29.0964 25.3948 28.9903L25.4966 28.9394C25.6663 28.8504 25.8361 28.7613 26.0058 28.668C26.4299 28.4347 26.8456 28.1887 27.2566 27.9258C27.3711 27.8579 27.4816 27.7858 27.5961 27.7095C27.7572 27.6034 27.9183 27.4932 28.0753 27.3786C27.681 27.1241 27.2696 26.8824 26.8456 26.6533Z" fill="#99C9E9"/>
</svg>
