<svg width="53" height="35" viewBox="0 0 53 35" fill="none" xmlns="http://www.w3.org/2000/svg">
<g clip-path="url(#clip0_2891_5922)">
<path d="M15.3154 16.9329C19.916 16.9329 23.6455 13.2011 23.6455 8.59766C23.6455 3.99422 19.916 0.262388 15.3154 0.262388C10.7148 0.262388 6.98529 3.99422 6.98529 8.59766C6.98529 13.2011 10.7148 16.9329 15.3154 16.9329Z" fill="#99C9E9"/>
<path d="M35.9358 2.53313C35.8797 2.31283 35.6972 2.148 35.5069 2.0238C35.3167 1.89959 35.1072 1.79977 34.9447 1.64086C34.7823 1.48195 34.673 1.24032 34.7484 1.02587C34.8401 0.765242 35.1456 0.661093 35.4127 0.590825C32.9683 0.327886 30.512 0.190772 28.0535 0.180024C27.9981 0.104879 27.9204 0.0491696 27.8315 0.0208548C27.7426 -0.00745992 27.647 -0.00693274 27.5584 0.0223617C27.4698 0.0516562 27.3927 0.10822 27.3381 0.183972C27.2836 0.259724 27.2544 0.350789 27.2546 0.444162V8.35025H28.1424V3.49368C30.2511 3.49879 32.3598 3.5039 34.4685 3.50901C34.8099 3.50984 35.1651 3.50766 35.4721 3.35804C35.779 3.20843 36.0201 2.8642 35.9358 2.53313Z" fill="#99C9E9"/>
<path d="M40.8375 16.7005V14.0355H42.8794C43.2408 14.0355 43.5987 13.9643 43.9326 13.8259C44.2665 13.6875 44.5699 13.4847 44.8254 13.229C45.081 12.9733 45.2837 12.6697 45.422 12.3356C45.5603 12.0015 45.6315 11.6434 45.6315 11.2817L30.0955 11.2817C30.0955 10.9519 30.2264 10.6356 30.4595 10.4023C30.6926 10.1691 31.0087 10.0381 31.3384 10.0381H42.1692V9.72891C42.1692 8.67313 41.4388 7.81726 40.5378 7.81726H27.0393C24.9604 7.81726 23.0609 9.15718 22.0812 11.2817H19.9074C19.7229 11.2817 19.5457 11.3535 19.4132 11.482L18.0386 12.8145C17.937 12.9129 17.8671 13.0395 17.8379 13.1779C17.8086 13.3164 17.8214 13.4604 17.8745 13.5916C17.9275 13.7228 18.0186 13.8351 18.1358 13.9142C18.2531 13.9933 18.3913 14.0355 18.5328 14.0355H20.2412V16.7005H12.3927C12.2924 16.7005 12.1932 16.7218 12.1017 16.7629C12.0102 16.804 11.9284 16.864 11.8618 16.939L10.2835 18.7157C10.1926 18.8181 10.1331 18.9446 10.1124 19.08C10.0916 19.2154 10.1104 19.354 10.1665 19.4789C10.2226 19.6039 10.3136 19.71 10.4285 19.7844C10.5435 19.8589 10.6775 19.8985 10.8144 19.8985H15.6955C15.8159 19.8985 15.9344 19.9291 16.0397 19.9875C16.145 20.0459 16.2338 20.1301 16.2976 20.2323L17.1542 21.6027C17.219 21.7063 17.2559 21.8249 17.2615 21.947C17.2671 22.0691 17.2411 22.1906 17.1861 22.2997C17.1311 22.4088 17.0489 22.5019 16.9474 22.5699C16.8459 22.6379 16.7286 22.6786 16.6068 22.6881L6.02003 23.5076C5.89115 23.5175 5.76742 23.5625 5.6622 23.6377C5.55699 23.7128 5.47427 23.8153 5.42296 23.934L3.18111 29.1215C3.13439 29.2296 3.11525 29.3477 3.12543 29.465C3.13561 29.5824 3.17479 29.6953 3.23943 29.7938C3.30408 29.8922 3.39217 29.9731 3.49577 30.029C3.59938 30.0849 3.71526 30.1142 3.83299 30.1142H39.2068C40.0732 30.1145 40.938 30.0356 41.7901 29.8785C48.1055 28.7125 52.6449 23.1266 52.6449 16.7005L40.8375 16.7005ZM22.9045 14.0355H38.1742V16.7005H22.9045V14.0355ZM45.0988 19.7208C45.0988 20.0941 45.0253 20.4638 44.8826 20.8087C44.7398 21.1535 44.5306 21.4669 44.2668 21.7309C44.003 21.9948 43.6898 22.2042 43.3451 22.3471C43.0004 22.4899 42.631 22.5635 42.258 22.5635H19.3534C19.3534 21.8095 19.6527 21.0865 20.1855 20.5534C20.7183 20.0203 21.4409 19.7208 22.1943 19.7208L45.0988 19.7208Z" fill="white"/>
<path d="M40.1273 8.61675H38.9732V13.4137H40.1273V8.61675Z" fill="white"/>
<path d="M18.9095 30.3807H0.266331C0.195695 30.3807 0.127953 30.3526 0.0780061 30.3027C0.0280593 30.2527 0 30.1849 0 30.1142C0 30.0435 0.0280593 29.9757 0.0780061 29.9258C0.127953 29.8758 0.195695 29.8477 0.266331 29.8477H18.9095C18.9802 29.8477 19.0479 29.8758 19.0979 29.9258C19.1478 29.9757 19.1759 30.0435 19.1759 30.1142C19.1759 30.1849 19.1478 30.2527 19.0979 30.3027C19.0479 30.3526 18.9802 30.3807 18.9095 30.3807Z" fill="#99C9E9"/>
<path d="M10.6533 31.9797H2.92965C2.85901 31.9797 2.79127 31.9516 2.74132 31.9016C2.69138 31.8517 2.66331 31.7839 2.66331 31.7132C2.66331 31.6425 2.69138 31.5747 2.74132 31.5248C2.79127 31.4748 2.85901 31.4467 2.92965 31.4467H10.6533C10.7239 31.4467 10.7916 31.4748 10.8416 31.5248C10.8915 31.5747 10.9196 31.6425 10.9196 31.7132C10.9196 31.7839 10.8915 31.8517 10.8416 31.9016C10.7916 31.9516 10.7239 31.9797 10.6533 31.9797Z" fill="#99C9E9"/>
<path d="M44.7437 30.3807H26.1005C26.0299 30.3807 25.9621 30.3526 25.9122 30.3027C25.8622 30.2527 25.8342 30.1849 25.8342 30.1142C25.8342 30.0435 25.8622 29.9757 25.9122 29.9258C25.9621 29.8758 26.0299 29.8477 26.1005 29.8477H44.7437C44.8144 29.8477 44.8821 29.8758 44.932 29.9258C44.982 29.9757 45.01 30.0435 45.01 30.1142C45.01 30.1849 44.982 30.2527 44.932 30.3027C44.8821 30.3526 44.8144 30.3807 44.7437 30.3807Z" fill="#99C9E9"/>
<path d="M33.2915 31.9797H14.6482C14.5776 31.9797 14.5099 31.9516 14.4599 31.9016C14.41 31.8517 14.3819 31.7839 14.3819 31.7132C14.3819 31.6425 14.41 31.5747 14.4599 31.5248C14.5099 31.4748 14.5776 31.4467 14.6482 31.4467H33.2915C33.3621 31.4467 33.4298 31.4748 33.4798 31.5248C33.5297 31.5747 33.5578 31.6425 33.5578 31.7132C33.5578 31.7839 33.5297 31.8517 33.4798 31.9016C33.4298 31.9516 33.3621 31.9797 33.2915 31.9797Z" fill="#99C9E9"/>
<path d="M18.9096 33.401H0.266338C0.195776 33.4009 0.128142 33.3728 0.0782859 33.3228C0.02843 33.2728 0.000427246 33.2051 0.000427246 33.1345C0.000427246 33.0639 0.02843 32.9962 0.0782859 32.9462C0.128142 32.8963 0.195776 32.8681 0.266338 32.868H18.9096C18.9801 32.8681 19.0478 32.8963 19.0976 32.9462C19.1475 32.9962 19.1755 33.0639 19.1755 33.1345C19.1755 33.2051 19.1475 33.2728 19.0976 33.3228C19.0478 33.3728 18.9801 33.4009 18.9096 33.401Z" fill="#99C9E9"/>
<path d="M30.0955 35H22.3719C22.3012 35 22.2335 34.9719 22.1835 34.9219C22.1336 34.872 22.1055 34.8042 22.1055 34.7335C22.1055 34.6628 22.1336 34.595 22.1835 34.5451C22.2335 34.4951 22.3012 34.467 22.3719 34.467H30.0955C30.1661 34.467 30.2339 34.4951 30.2838 34.5451C30.3337 34.595 30.3618 34.6628 30.3618 34.7335C30.3618 34.8042 30.3337 34.872 30.2838 34.9219C30.2339 34.9719 30.1661 35 30.0955 35Z" fill="#99C9E9"/>
<path d="M13.4054 35H5.68174C5.6111 35 5.54336 34.9719 5.49341 34.9219C5.44347 34.872 5.41541 34.8042 5.41541 34.7335C5.41541 34.6628 5.44347 34.595 5.49341 34.5451C5.54336 34.4951 5.6111 34.467 5.68174 34.467H13.4054C13.476 34.467 13.5437 34.4951 13.5937 34.5451C13.6436 34.595 13.6717 34.6628 13.6717 34.7335C13.6717 34.8042 13.6436 34.872 13.5937 34.9219C13.5437 34.9719 13.476 35 13.4054 35Z" fill="#99C9E9"/>
<path d="M44.7437 33.401H26.1005C26.0299 33.401 25.9621 33.3729 25.9122 33.323C25.8622 33.273 25.8342 33.2052 25.8342 33.1345C25.8342 33.0638 25.8622 32.9961 25.9122 32.9461C25.9621 32.8961 26.0299 32.868 26.1005 32.868H44.7437C44.8143 32.8681 44.8819 32.8963 44.9318 32.9462C44.9816 32.9962 45.0096 33.0639 45.0096 33.1345C45.0096 33.2051 44.9816 33.2728 44.9318 33.3228C44.8819 33.3728 44.8143 33.4009 44.7437 33.401Z" fill="#99C9E9"/>
<path d="M52.7337 35H34.0905C34.0198 35 33.9521 34.9719 33.9021 34.9219C33.8522 34.872 33.8241 34.8042 33.8241 34.7335C33.8241 34.6628 33.8522 34.595 33.9021 34.5451C33.9521 34.4951 34.0198 34.467 34.0905 34.467H52.7337C52.8043 34.467 52.8721 34.4951 52.922 34.5451C52.9719 34.595 53 34.6628 53 34.7335C53 34.8042 52.9719 34.872 52.922 34.9219C52.8721 34.9719 52.8043 35 52.7337 35Z" fill="#99C9E9"/>
</g>
<defs>
<clipPath id="clip0_2891_5922">
<rect width="53" height="35" fill="white"/>
</clipPath>
</defs>
</svg>
